<svg width="2000" height="2000" fill="none" xmlns="http://www.w3.org/2000/svg">
  <g opacity=".4" stroke="#FDFBF9" stroke-linecap="round" clip-path="url(#a)">
    <path d="M842.535 1322.11c-184.912-72.4-276.122-280.99-203.724-465.902M2107.5 1431.07c-245.12 626.07-951.37 934.89-1577.437 689.76M1437.51 1316.24c181.87-256.19 121.61-611.306-134.58-793.168-256.19-181.862-611.305-121.606-793.167 134.585M-34.198 1284.82C-198.472 728.439 119.394 144.232 675.777-20.042" stroke-opacity=".15" stroke-width="5"/>
    <path d="M650.378 208.348C220.154 386.964 16.186 880.527 194.802 1310.75c178.616 430.23 672.178 634.19 1102.398 455.58M1210.43 879.284a260.691 260.691 0 0 0-160.72-141.886 260.702 260.702 0 0 0-109.229-9.589" stroke-opacity=".15" stroke-width="5"/>
    <path d="M1067.81 893.111a133.214 133.214 0 0 0-92.696-39.813 133.196 133.196 0 0 0-94.015 36.578" stroke-opacity=".15" stroke-width="5"/>
    <circle cx="973.624" cy="987.296" r="34.322" stroke-opacity=".15" stroke-width="5"/>
    <path d="M1929.02 1538.89c-304.64 527.65-979.344 708.44-1506.995 403.8-527.651-304.64-708.437-979.342-403.798-1506.993" stroke-opacity=".15" stroke-width="5"/>
    <path d="M1944.44 987.296c0 536.164-434.65 970.814-970.816 970.814-536.165 0-970.813-434.65-970.813-970.814" stroke-opacity=".15" stroke-width="5"/>
    <path d="M2103.11 1639.41c360.16-623.8 146.43-1421.454-477.37-1781.605-623.8-360.151-1421.455-146.421-1781.606 477.379" stroke-opacity=".15" stroke-width="5"/>
    <path d="M2102.97 987.296c0-623.721-505.63-1129.347-1129.346-1129.347M2148.73 987.296c0 648.994-526.11 1175.104-1175.106 1175.104-648.995 0-1175.109-526.11-1175.109-1175.104" stroke-opacity=".15" stroke-width="5"/>
    <path d="M1619.76 606.151c-210.5-356.85-670.431-475.49-1027.281-264.989C235.629 551.663 116.99 1011.59 327.49 1368.44" stroke-opacity=".15" stroke-width="5"/>
    <path d="M1515.93 1906.64c-507.74 299.51-1162.146 130.71-1461.656-377.03C-245.236 1021.86-76.43 367.457 431.312 67.947" stroke-opacity=".3" stroke-width="5"/>
    <path d="M1281.25 1508.8c-288.017 169.9-659.232 74.14-829.129-213.88-169.898-288.02-74.143-659.23 213.876-829.128" stroke-opacity=".15" stroke-width="5"/>
    <path d="M2024.91 1697.63c-392.31 580.61-1181.014 733.26-1761.624 340.95C-317.323 1646.27-469.971 857.567-77.662 276.958" stroke-opacity=".15" stroke-width="5"/>
    <path d="M1711.28 552.281c240.41 407.542 104.91 932.809-302.63 1173.209" stroke-opacity=".15" stroke-width="7.075"/>
    <path d="M1229.45 836.385c83.35 141.291 36.38 323.395-104.92 406.745-141.287 83.34-323.391 36.37-406.737-104.92" stroke-opacity=".3" stroke-width="5"/>
    <path d="M1315.69 785.516c111.44 188.918 48.63 432.404-140.29 543.844-188.913 111.44-432.401 48.63-543.84-140.28" stroke-opacity=".15" stroke-width="5"/>
    <path d="M1215.82 1397.88c-226.758 133.76-519.019 58.37-652.781-168.39-133.762-226.76-58.373-519.016 168.387-652.778" stroke-opacity=".15" stroke-width="5"/>
    <circle cx="973.624" cy="987.296" r="1374.5" stroke-opacity=".15" stroke-width="5"/>
    <path d="M2148.73 987.296c0-648.995-526.11-1175.109-1175.106-1175.109-648.995 0-1175.109 526.114-1175.109 1175.109" stroke-opacity=".15" stroke-width="5"/>
    <path d="M973.623 1912.35c-510.891 0-925.05-414.16-925.05-925.054 0-510.892 414.159-925.051 925.05-925.051" stroke-opacity=".3" stroke-width="5"/>
    <path d="M973.623 2391.21c-775.363 0-1403.919-628.55-1403.919-1403.915 0-775.363 628.556-1403.919 1403.919-1403.919" stroke-opacity=".15" stroke-width="5"/>
    <path d="M1217.27 77.979c502.21 134.565 800.23 650.766 665.67 1152.971-134.56 502.2-650.77 800.23-1152.967 665.66" stroke-opacity=".3" stroke-width="5"/>
    <path d="M1217.27 77.979c502.21 134.565 800.23 650.766 665.67 1152.971-134.56 502.2-650.77 800.23-1152.967 665.66" stroke-opacity=".3" stroke-width="5"/>
    <path d="M2227.18 987.295c0-692.321-561.24-1253.557-1253.556-1253.557-692.321 0-1253.558 561.236-1253.558 1253.557" stroke-opacity=".3" stroke-width="5"/>
    <path d="M2227.18 987.295c0-692.321-561.24-1253.557-1253.556-1253.557-692.321 0-1253.558 561.236-1253.558 1253.557" stroke-opacity=".3" stroke-width="5"/>
    <path d="M172.806 613.533C378.678 171.664 903.776-19.65 1345.64 186.222c441.87 205.872 633.19 730.969 427.32 1172.838" stroke-opacity=".15" stroke-width="5"/>
    <path d="M1195.49 1370.98c211.45-122.08 283.9-392.464 161.82-603.915-122.08-211.451-392.466-283.9-603.917-161.818" stroke-opacity=".15" stroke-width="5"/>
    <path d="M1645.35 988.113c0 370.527-300.38 670.907-670.909 670.907-370.532 0-670.907-300.38-670.907-670.907" stroke-opacity=".15" stroke-width="5"/>
    <path d="M1374.13 1858.36C892.684 2079.7 322.965 1868.84 101.625 1387.4M76.88 107.097C563.326-388.484 1359.42-395.889 1855 90.557M1196.16 1471.34c-267.206 122.84-583.409 5.81-706.256-261.4-122.847-267.206-5.818-583.409 261.391-706.256" stroke-opacity=".3" stroke-width="5"/>
    <path d="M833.68 683.859c167.55-77.031 365.83-3.649 442.86 163.904M1014.04 1074.51c47.84-21.99 68.79-78.601 46.8-126.44" stroke-opacity=".3" stroke-width="5"/>
    <path d="M972.91 1175.25c-104.254.05-188.815-84.41-188.872-188.668M957.276 1043.15c-31.114-8.33-49.578-40.32-41.241-71.43 8.336-31.114 40.318-49.578 71.431-41.241" stroke-opacity=".15" stroke-width="5"/>
    <path d="M319.297 688.652C484.42 327.369 911.157 168.35 1272.44 333.473c361.28 165.124 520.3 591.861 355.18 953.147" stroke-opacity=".15" stroke-width="5"/>
    <path d="M693.002 15.727C1229.59-138.918 1789.94 170.706 1944.58 707.29c154.65 536.59-154.98 1096.94-691.56 1251.58" stroke-opacity=".15" stroke-width="5"/>
    <path d="M932.064 843.547c-80.06 23.073-126.257 106.679-103.183 186.743 23.073 80.06 106.679 126.25 186.739 103.18M973.579 2115.92c623.591.11 1129.191-505.33 1129.301-1128.915" stroke-opacity=".15" stroke-width="5"/>
    <path d="M973.183 1776.91c-436.07-.07-789.514-353.64-789.441-789.705.074-436.069 353.637-789.514 789.706-789.441M1289.17 769.238c118.36 172.209 72.79 409.072-101.78 529.052" stroke-opacity=".15" stroke-width="5"/>
    <path d="M1581.43-219.828c657.6 331.449 918.32 1140.532 582.33 1807.138-335.99 666.61-1141.45 938.3-1799.049 606.86" stroke-opacity=".15" stroke-width="5"/>
    <path d="M1494.51 628.196c195.09 283.859 119.98 674.294-167.77 872.054-287.74 197.77-679.162 127.98-874.255-155.88M1848 782.49C1735.96 306.117 1253.67 12.012 770.772 125.588" stroke-opacity=".15" stroke-width="5"/>
    <path d="M1249.83 987.296a276.203 276.203 0 0 0-183.99-260.361 276.22 276.22 0 0 0-167.172-5.482 276.206 276.206 0 0 0-139.682 91.999" stroke-opacity=".15" stroke-width="5"/>
  </g>
  <defs>
    <clipPath id="a">
      <path fill="#fff" d="M0 0h2000v2000H0z"/>
    </clipPath>
  </defs>
</svg>