<svg width="2000" height="2000" fill="none" xmlns="http://www.w3.org/2000/svg">
  <rect width="100%" height="100%" fill="url(#a)" opacity=".08"/>
  <g fill-rule="evenodd" clip-rule="evenodd" fill="#FDFBF9">
    <g opacity=".322">
      <use href="#b" x="1428.575"/>
      <use href="#b" x="1542.861" y="685.716"/>
      <use href="#b" x="571.43" y="857.145"/>
      <use href="#b" x="1514.29" y="142.858"/>
      <use href="#b" x="57.143" y="1428.575"/>
      <use href="#b" x="1057.146" y="1514.29"/>
      <use href="#b" x="285.715" y="571.43"/>
      <use href="#b" x="1257.146" y="685.716"/>
      <use href="#b" x="114.286" y="1371.432"/>
      <use href="#b" x="1742.862" y="657.145"/>
      <use href="#b" x="1285.718" y="1457.147"/>
      <use href="#b" x="428.573" y="1400.004"/>
      <use href="#b" x="628.573"/>
      <use href="#b" x="428.573" y="1857.148"/>
      <use href="#b" x="228.572" y="800.002"/>
      <use href="#b" x="1371.432" y="514.287"/>
      <use href="#b" x="1228.575" y="1971.434"/>
      <use href="#b" x="1371.432" y="1600.004"/>
      <use href="#b" x="1514.29" y="1114.289"/>
      <use href="#b" x="1314.289" y="1314.289"/>
      <use href="#b" x="685.716" y="1142.86"/>
      <use href="#b" x="428.573" y="142.858"/>
      <use href="#b" x="171.429" y="1371.432"/>
      <use href="#b" x="714.288" y="28.572"/>
      <use href="#b" x="685.716" y="1600.004"/>
      <use href="#b" x="1714.29" y="1600.004"/>
      <use href="#b" x="742.859" y="1028.574"/>
      <use href="#b" x="314.287" y="942.86"/>
      <use href="#b" x="571.43" y="57.143"/>
      <use href="#b" x="257.144" y="485.716"/>
      <use href="#b" x="1857.148" y="1800.005"/>
      <use href="#b" x="457.144" y="1657.147"/>
      <use href="#b" x="142.858" y="314.287"/>
      <use href="#b" x="114.286" y="742.859"/>
      <use href="#b" x="828.574" y="1800.005"/>
      <use href="#b" x="1314.289" y="1942.862"/>
      <use href="#b" x="1485.718" y="1942.862"/>
      <use href="#b" x="85.715" y="1742.862"/>
      <use href="#b" x="200.001" y="828.574"/>
      <use href="#b" x="1114.289" y="600.002"/>
      <use href="#b" x="1714.29" y="228.572"/>
      <use href="#b" x="1200.003" y="1657.147"/>
    </g>
    <g opacity=".225">
      <use href="#b" x="514.287" y="971.431"/>
      <use href="#b" x="257.144" y="1857.148"/>
      <use href="#b" x="1200.003" y="171.429"/>
      <use href="#b" x="885.717" y="714.288"/>
      <use href="#b" x="1457.147" y="1628.576"/>
      <use href="#b" x="1771.433" y="457.144"/>
      <use href="#b" x="857.145" y="57.143"/>
      <use href="#b" x="85.715" y="657.145"/>
      <use href="#b" x="1485.718" y="685.716"/>
      <use href="#b" x="742.859" y="1542.861"/>
      <use href="#b" x="857.145" y="285.715"/>
      <use href="#b" x="342.858" y="400.001"/>
      <use href="#b" x="1314.289" y="457.144"/>
      <use href="#b" x="1971.434" y="314.287"/>
      <use href="#b" x="1657.147" y="457.144"/>
      <use href="#b" x="1457.147" y="657.145"/>
      <use href="#b" x="571.43" y="971.431"/>
      <use href="#b" x="1914.291" y="657.145"/>
      <use href="#b" x="1257.146" y="1371.432"/>
      <use href="#b" x="257.144" y="1342.861"/>
      <use href="#b" x="971.431" y="857.145"/>
      <use href="#b" x="1114.289" y="1114.289"/>
      <use href="#b" x="1428.575" y="1200.003"/>
      <use href="#b" x="1171.432" y="657.145"/>
      <use href="#b" x="942.86" y="771.431"/>
      <use href="#b" x="28.572" y="1457.147"/>
      <use href="#b" x="171.429" y="228.572"/>
      <use href="#b" x="485.716" y="314.287"/>
      <use href="#b" x="657.145" y="1114.289"/>
      <use href="#b" x="942.86" y="1857.148"/>
      <use href="#b" x="28.572" y="142.858"/>
      <use href="#b" x="914.288" y="114.286"/>
      <use href="#b" x="1028.574" y="1657.147"/>
      <use href="#b" x="1200.003" y="914.288"/>
      <use href="#b" x="1371.432" y="971.431"/>
      <use href="#b" x="1742.862" y="1400.004"/>
      <use href="#b" x="28.572" y="714.288"/>
      <use href="#b" x="1400.004" y="200.001"/>
      <use href="#b" x="1628.576" y="828.574"/>
      <use href="#b" x="657.145" y="1857.148"/>
      <use href="#b" x="1285.718" y="885.717"/>
      <use href="#b" x="428.573" y="1685.719"/>
    </g>
    <g opacity=".113">
      <use href="#b" x="1085.717" y="1828.576"/>
      <use href="#b" x="828.574" y="1628.576"/>
      <use href="#b" x="1457.147" y="942.86"/>
      <use href="#b" x="800.002" y="571.43"/>
      <use href="#b" x="1800.005" y="1114.289"/>
      <use href="#b" x="685.716" y="1257.146"/>
      <use href="#b" x="1342.861" y="1742.862"/>
      <use href="#b" x="1485.718" y="1314.289"/>
      <use href="#b" x="828.574" y="1228.575"/>
      <use href="#b" x="971.431" y="1828.576"/>
      <use href="#b" x="1342.861" y="771.431"/>
      <use href="#b" x="885.717" y="1057.146"/>
      <use href="#b" x="1142.86" y="1657.147"/>
      <use href="#b" x="1771.433" y="1600.004"/>
      <use href="#b" x="857.145" y="1657.147"/>
      <use href="#b" x="1628.576" y="28.572"/>
      <use href="#b" x="1857.148" y="942.86"/>
      <use href="#b" x="85.715" y="257.144"/>
      <use href="#b" x="342.858" y="1428.575"/>
      <use href="#b" x="228.572"/>
      <use href="#b" x="1171.432" y="1171.432"/>
      <use href="#b" x="1028.574" y="342.858"/>
      <use href="#b" x="1742.862" y="828.574"/>
      <use href="#b" x="1800.005" y="1857.148"/>
      <use href="#b" x="542.859" y="371.43"/>
      <use href="#b" x="1200.003" y="1942.862"/>
      <use href="#b" x="1685.719" y="1971.434"/>
      <use href="#b" x="1114.289" y="1514.29"/>
      <use href="#b" x="1371.432" y="1828.576"/>
      <use href="#b" x="114.286" y="1485.718"/>
      <use href="#b" x="1400.004" y="1114.289"/>
      <use href="#b" x="1971.434" y="771.431"/>
      <use href="#b" x="1057.146" y="371.43"/>
      <use href="#b" x="1885.719" y="1485.718"/>
      <use href="#b" x="1571.433" y="942.86"/>
      <use href="#b" x="1971.434" y="1228.575"/>
      <use href="#b" x="1571.433" y="1685.719"/>
      <use href="#b" x="1685.719" y="1342.861"/>
      <use href="#b" x="1685.719" y="28.572"/>
      <use href="#b" x="28.572" y="428.573"/>
      <use href="#b" x="114.286" y="1942.862"/>
      <use href="#b" x="600.002" y="314.287"/>
    </g>
  </g>
  <defs>
    <pattern id="a" viewBox="-0.1 -0.1 57.62 57.62" width="2.857%" height="2.857%">
      <use href="#b"/>
      <use href="#b" x="28.572" y="28.572"/>
    </pattern>
    <path id="b" d="M15.255 4.744H13.35v8.572H4.779v1.904h8.571v8.572h1.905V15.22h8.571v-1.904h-8.571V4.744Z" fill="#FDFBF9"/>
  </defs>
</svg>