<svg width="2000" height="2000" fill="none" xmlns="http://www.w3.org/2000/svg">
  <g opacity=".5" clip-path="url(#a)">
    <g opacity=".5">
      <circle cx="1007.64" cy="360.755" r="4.058" fill="#FDFBF9"/>
      <circle cx="258.214" cy="159.194" r="4.058" fill="#FDFBF9"/>
      <circle cx="730.328" cy="935.679" r="5.411" fill="#FDFBF9"/>
      <circle cx="1030.64" cy="669.185" r="4.058" fill="#FDFBF9"/>
      <circle cx="1574.45" cy="804.461" r="5.411" fill="#FDFBF9"/>
      <circle cx="1263.45" cy="1319.46" r="4.41" fill="#FDFBF9"/>
      <circle cx="902.452" cy="1542.46" r="5.411" fill="#FDFBF9"/>
      <circle cx="404.451" cy="1564.46" r="6.41" fill="#FDFBF9"/>
      <circle cx="651.451" cy="1191.46" r="3.41" fill="#FDFBF9"/>
      <circle cx="1891.91" cy="1168.91" r="6.91" fill="#FDFBF9"/>
      <circle cx="1795.91" cy="1778.91" r="3.91" fill="#FDFBF9"/>
      <path d="m-2.87 261.008 262.437-101.814m0 0 748.073 201.561M259.567 159.194-2.869 14.448M1007.64 360.755l23 308.43m-23-308.43L1383.71-8.549m-353.07 677.734L730.328 935.679m300.312-266.494 543.81 135.276M730.328 935.679-2.869 866.688m733.197 68.991L652.005 1191m0 0L-2.869 1478m654.874-287 250 350m672.445-736.539 316.56 362.549m-316.56-362.549 435.59-212.383m-435.59 212.383L1264 1319m627.01-151.99L2036 1191m-144.99-23.99L2022 1519m-1119.995 22-130.001 466m130.001-466L1795 1779m0 0 211-151m-211 151 107 228m-638-688 106 700m-106-700-859.996 246m0 0-94 442m94-442L-2.869 1239M1650.21-3.138l353.81 444.154" stroke="#FDFBF9"/>
    </g>
    <g opacity=".3">
      <path d="m240.628-8.549 565.454 707.495m0 0 105.516 332.784M806.082 698.946l795.428-382.832M806.082 698.946-.164 519.029m911.762 512.701L1672 1405m-760.402-373.27L544 1861l-426 150M1601.51 316.114l402.51 24.906m-402.51-24.906L1793.6-8.549M1672 1405l-12 606m12-606 346 344" stroke="#FDFBF9"/>
      <circle cx="542.91" cy="1861.91" r="4.91" fill="#FDFBF9"/>
      <circle cx="806.082" cy="698.946" r="5.411" fill="#FDFBF9"/>
      <circle cx="912.082" cy="1032.95" r="5.411" fill="#FDFBF9"/>
      <circle cx="1671.58" cy="1405.44" r="4.91" fill="#FDFBF9"/>
      <circle cx="1601.51" cy="316.114" r="4.058" fill="#FDFBF9"/>
    </g>
    <g opacity=".15">
      <path d="m620.754-13.96 574.926 339.543m0 0-154.22 581.688m154.22-581.688L1157.8-13.96m37.88 339.543 812.33 172.429m-966.55 409.259 24.35 132.569L1168 1495m-126.54-587.729L811.493 1023.61 310 1107m858 388-26 524m26-524 840.01 74M310 1107-6 785m316 322-330-20" stroke="#FDFBF9"/>
      <circle cx="1195.68" cy="325.583" r="4.058" fill="#FDFBF9"/>
      <circle cx="1041.46" cy="907.271" r="5.411" fill="#FDFBF9"/>
      <circle cx="809.462" cy="1023.27" r="4.41" fill="#FDFBF9"/>
      <circle cx="309.462" cy="1105.27" r="4.41" fill="#FDFBF9"/>
      <circle cx="1167.91" cy="1496.91" r="6.91" fill="#FDFBF9"/>
    </g>
    <g opacity=".15">
      <path d="M562.544 700.256 1137.47 1039.8 2018 1053M562.544 700.256l154.215-581.688M562.544 700.256 434 1149m128.544-448.744L-218 543.336m934.759-424.768-24.35-132.57m24.35 132.57L946.728 2.232M434 1149l530 868m-530-868-446 712" stroke="#FDFBF9"/>
      <circle cx="562.544" cy="700.256" r="4.058" transform="rotate(-180 562.544 700.256)" fill="#FDFBF9"/>
      <circle cx="433.544" cy="1152.26" r="4.058" transform="rotate(-180 433.544 1152.26)" fill="#FDFBF9"/>
      <circle cx="1137.06" cy="1039.06" r="4.058" transform="rotate(-180 1137.06 1039.06)" fill="#FDFBF9"/>
      <circle cx="716.759" cy="118.569" r="5.411" transform="rotate(-180 716.759 118.569)" fill="#FDFBF9"/>
    </g>
  </g>
  <defs>
    <clipPath id="a">
      <path fill="#fff" d="M0 0h2000v2000H0z"/>
    </clipPath>
  </defs>
</svg>
