<svg xmlns="http://www.w3.org/2000/svg" xmlns:xlink="http://www.w3.org/1999/xlink" version="1.1" id="Layer_1" x="0" y="0" viewBox="0 0 2086 1797" style="enable-background:new 0 0 2086 1797" xml:space="preserve">
  <style>
    .st1{opacity:.5;fill:none;stroke:#fefcf9;stroke-width:1.5;stroke-miterlimit:10}.st1,.st2,.st3{enable-background:new}.st2{opacity:.7;fill:none;stroke:#fefcf9;stroke-width:1.5;stroke-miterlimit:10}.st3{opacity:.8}.st3,.st4,.st5{fill:none;stroke:#fefcf9;stroke-width:1.5;stroke-miterlimit:10}.st5{opacity:.6;enable-background:new}
  </style>
  <defs>
    <path id="SVGID_1_" d="M0 0h2086v1797H0z"/>
  </defs>
  <clipPath id="SVGID_00000183237780911392831470000007543607466568760766_">
    <use xlink:href="#SVGID_1_" style="overflow:visible"/>
  </clipPath>
  <g style="opacity:.2;clip-path:url(#SVGID_00000183237780911392831470000007543607466568760766_)">
    <path class="st1" d="M.6 124.2C284.3 40 533.5 262 890.9 208.4c357.4-53.6 527.8-255.2 690.9-196.5 163.1 58.7 274.9 186.3 504 183.8"/>
    <path class="st1" d="M.6 94.2C284.3 10 533.5 232 890.9 178.4c357.4-53.6 527.8-255.2 690.9-196.5 163.1 58.7 274.9 186.3 504 183.8"/>
    <path class="st1" d="M.6 64.2C284.3-20 533.5 202 890.9 148.4c357.4-53.6 527.8-255.2 690.9-196.5 163.1 58.7 274.9 186.3 504 183.8"/>
    <path class="st1" d="M.6 34.2C284.3-50 533.5 172 890.9 118.4c357.4-53.6 527.8-255.2 690.9-196.5 163.1 58.7 274.9 186.3 504 183.8"/>
    <path class="st1" d="M.6 4.2C284.3-80 533.5 142 890.9 88.4c357.4-53.6 527.8-255.2 690.9-196.5 163.1 58.7 274.9 186.3 504 183.8"/>
    <path class="st1" d="M.6-25.8C284.3-110 533.5 112 890.9 58.4c357.4-53.6 527.8-255.2 690.9-196.5 163.1 58.7 274.9 186.3 504 183.8"/>
    <path class="st1" d="M.6 179.2C281.3 106 525 285.7 879.2 237.7c354.2-48 538.2-221.9 706.2-169.3 167.9 52.6 279.9 163.7 500.3 162.7"/>
    <path class="st1" d="M.6 234.1c277.8-62.1 515.8 75.2 867 32.8 351.2-42.4 548.6-188.5 721.4-142.1 172.9 46.4 284.8 141.1 496.6 141.7"/>
    <path class="st1" d="M.6 289.1c274.8-51 507.2 43.8 855.4 7.2 348.2-36.6 558.9-155.2 736.7-114.9 177.8 40.2 289.9 118.5 493 120.5"/>
    <path class="st1" d="M.6 344.1c271.9-40 498.7 12.6 843.8-18.5 345.1-31.1 569.3-121.8 752-87.5 182.7 34.3 294.9 95.8 489.3 99.4"/>
    <path class="st1" d="M.6 399c269-28.9 490.1-18.7 832.2-44.3 342.1-25.5 579.7-88.5 767.2-60.4s299.9 73.2 485.6 78.3"/>
    <path class="st2" d="M.6 454c266-17.9 481.6-50 820.6-69.9 339-19.9 590.1-55.1 782.5-33.2s305 50.5 482 57.2"/>
    <path class="st3" d="M.6 509c263.1-6.8 473-81.4 809-95.7 336-14.3 600.5-21.8 797.8-6 197.3 15.8 309.9 27.9 478.3 36.1"/>
    <path class="st4" d="M.6 563.9C260.8 568.2 465 451.3 798 442.6c332.9-8.7 610.9 11.6 813.1 21.3 202.2 9.7 315 5.2 474.6 15"/>
    <path class="st3" d="M.6 618.9c257.2 15.3 455.9-143.9 785.8-147 329.9-3.1 621.3 44.9 828.3 48.5 207.1 3.6 320-17.3 471-6.1"/>
    <path class="st2" d="M.6 673.8C254.9 700.2 448 498.7 774.8 501.2c326.8 2.6 631.6 78.3 843.6 75.7 212-2.5 325-40.1 467.3-27.3"/>
    <path class="st1" d="M.6 728.8C252 766.2 439.4 522.2 763.2 530.4c323.8 8.2 642 111.6 858.9 103 216.9-8.6 330-62.6 463.7-48.3"/>
    <path class="st1" d="M.6 783.8c248.5 48.5 430.3-237.9 750.9-224.1 320.7 13.8 652.4 145 874.1 130.2 221.8-14.8 335-85.2 460-69.4"/>
    <path class="st1" d="M.6 838.7C246.1 898.3 422.3 569.5 740 588.8c317.6 19.3 662.8 178.3 889.4 157.4 226.7-20.9 340-107.9 456.3-90.5"/>
    <path class="st1" d="M.6 893.7c242.6 70.6 413.1-300.5 727.7-275.6s673.3 211.7 904.7 184.6c231.5-27.1 345-130.5 452.7-111.6"/>
    <path class="st1" d="M.6 948.6c239.7 81.7 404.6-331.8 716.1-301.1 311.5 30.7 683.5 245 920 211.8 236.4-33.2 350-153.1 449-132.7M.6 1796.1c339.4-431.4 523.3-574.3 699.7-551.3 176.4 23 362.1 490.1 702 390.5 339.9-99.5 542.3-178.5 683.4-115.9"/>
    <path class="st1" d="M.6 1836.1c339.4-431.4 523.3-574.3 699.7-551.3 176.4 23 362.1 490.1 702 390.5 339.9-99.5 542.3-178.5 683.4-115.9"/>
    <path class="st1" d="M.6 1876.1c339.4-431.4 523.3-574.3 699.7-551.3 176.4 23 362.1 490.1 702 390.5 339.9-99.5 542.3-178.5 683.4-115.9"/>
    <path class="st1" d="M.6 1916.1c339.4-431.4 523.3-574.3 699.7-551.3 176.4 23 362.1 490.1 702 390.5s542.3-178.5 683.4-115.9"/>
    <path class="st5" d="M.6 1956.1c339.4-431.4 523.3-574.3 699.7-551.3 176.4 23 362.1 490.1 702 390.5s542.3-178.5 683.4-115.9"/>
    <path class="st3" d="M.6 1996.1c339.4-431.4 523.3-574.3 699.7-551.3 176.4 23 362.1 490.1 702 390.5s542.3-178.5 683.4-115.9"/>
    <path class="st4" d="M.6 2036.1c339.4-431.4 523.3-574.3 699.7-551.3 176.4 23 362.1 490.1 702 390.5s542.3-178.5 683.4-115.9"/>
    <path class="st3" d="M.6 2076.1c339.4-431.4 523.3-574.3 699.7-551.3 176.4 23 362.1 490.1 702 390.5s542.3-178.5 683.4-115.9"/>
    <path class="st5" d="M.6 2116.1c339.4-431.4 523.3-574.3 699.7-551.3 176.4 23 362.1 490.1 702 390.5s542.3-178.5 683.4-115.9"/>
    <path class="st1" d="M.6 2156.1c339.4-431.4 523.3-574.3 699.7-551.3 176.4 23 362.1 490.1 702 390.5s542.3-178.5 683.4-115.9"/>
    <path class="st1" d="M.6 2196.1c339.4-431.4 523.3-574.3 699.7-551.3 176.4 23 362.1 490.1 702 390.5s542.3-178.5 683.4-115.9"/>
    <path class="st1" d="M.6 2236.1c339.4-431.4 523.3-574.3 699.7-551.3 176.4 23 362.1 490.1 702 390.5s542.3-178.5 683.4-115.9"/>
    <path class="st1" d="M.6 2276.1c339.4-431.4 523.3-574.3 699.7-551.3 176.4 23 362.1 490.1 702 390.5s542.3-178.5 683.4-115.9M.6 1739.6c332.8-397.2 515.4-558.1 700.8-534.7 185.4 23.5 383.6 473.7 716.5 378.7 333-95.1 529.4-176.8 667.7-117.1"/>
    <path class="st1" d="M.6 1683.2c326.1-363 507.5-542.1 701.9-518s405.1 457.4 731.1 366.7c326-90.7 516.6-175.2 652.1-118.2"/>
    <path class="st1" d="M.6 1626.5c319.5-328.8 499.5-525.8 703-501.3 203.5 24.5 426.4 441.1 745.6 354.8 319.1-86.3 503.8-173.4 636.5-119.4"/>
    <path class="st1" d="M.6 1570.1c312.8-294.5 491.6-509.7 704.1-484.6 212.5 25.1 447.9 424.7 760.2 342.9s491-171.7 620.9-120.5"/>
    <path class="st1" d="M.6 1513.6c306.2-260.4 483.7-493.5 705.2-468 221.5 25.5 469.3 408.4 774.6 331s478.2-170 605.3-121.6"/>
    <path class="st1" d="M.6 1457.1c299.5-226.2 475.8-477.2 706.3-451.3s490.7 392.1 789.2 319c298.5-73 465.4-168.3 589.6-122.7"/>
    <path class="st1" d="M.6 1400.6C293.5 1208.7 468.6 939.5 708 966c239.4 26.5 512.1 375.7 803.7 307.1 291.6-68.6 452.6-166.6 574-123.8"/>
    <path class="st1" d="M.6 1344.1c286.2-157.8 460-445 708.4-417.9 248.4 27.1 533.6 359.4 818.3 295.2 284.7-64.2 439.7-164.9 558.4-124.9"/>
    <path class="st1" d="M.6 1287.6c279.6-123.5 452.1-428.8 709.6-401.2 257.5 27.6 555 343 832.8 283.4s426.9-163.3 542.8-126.1"/>
    <path class="st2" d="M.6 1231.1c272.9-89.3 444.2-412.6 710.6-384.6 266.5 28.1 576.4 326.7 847.3 271.4s414.1-161.6 527.1-127.2"/>
    <path class="st3" d="M.6 1174.6c266.3-55.1 436.2-396.5 711.8-367.9 275.5 28.6 597.8 310.4 861.9 259.5 264.1-50.9 401.4-159.9 511.5-128.3"/>
    <path class="st4" d="M.6 1118.1c259.6-20.9 428.3-380.4 712.8-351.2s619.3 294 876.4 247.6c257.1-46.4 388.4-158.2 495.9-129.4"/>
    <path class="st3" d="M.6 1061.6c252.9 13.3 420.4-364.1 713.9-334.5s640.7 277.7 890.9 235.7c250.2-42 375.7-156.5 480.2-130.5"/>
    <path class="st2" d="M.6 1005.1c246.3 47.5 412.5-348 715-317.9 302.6 30.1 662.1 261.4 905.4 223.8 243.3-37.6 362.8-154.8 464.6-131.6"/>
  </g>
</svg>